<svg width="64" height="64" viewBox="0 0 64 64" fill="none" xmlns="http://www.w3.org/2000/svg">
  <rect width="64" height="64" rx="16" fill="#0D5EA8"/>
  <circle cx="32" cy="32" r="15" stroke="white" stroke-width="3"/>
  <path d="M32 20V44" stroke="#A9D7FF" stroke-width="3" stroke-linecap="round"/>
  <path d="M26 24.5C26.8333 23.8333 28.9 22.5 31.5 22.5C35.5 22.5 38 25 38 28C38 32.5 31 31 31 35.5C31 37.5 33 38.5 35 38.5C36.3333 38.5 38.8 38 40 36.5" stroke="white" stroke-width="3" stroke-linecap="round"/>
  <path d="M22.5 32.5C21.5 31.5 20 29.3 20 27C20 23 22.5 20.5 26 20.5" stroke="#A9D7FF" stroke-width="3" stroke-linecap="round"/>
  <path d="M41.5 31.5C42.5 32.5 44 34.7 44 37C44 41 41.5 43.5 38 43.5" stroke="#A9D7FF" stroke-width="3" stroke-linecap="round"/>
</svg>
